<?xml version="1.0" encoding="utf-8"?>
<!-- Generator: Adobe Illustrator 27.9.5, SVG Export Plug-In . SVG Version: 9.03 Build 54986)  -->
<svg version="1.1" id="Calque_1" xmlns="http://www.w3.org/2000/svg" xmlns:xlink="http://www.w3.org/1999/xlink" x="0px" y="0px"
	 viewBox="0 0 2782.9 346" style="enable-background:new 0 0 2782.9 346;" xml:space="preserve">
<style type="text/css">
	.st0{fill:#FF3966;}
	.st1{fill:#E20C33;}
</style>
<g>
	<path class="st0" d="M2778.9,316.2c-19.7-3.9-33.3-16-37.3-33.3c-1.3-5.7-2.3-11.1-3.3-16.4c-2.9-16.1-5.7-31.3-17.5-46.6
		c-9.8-12.7-25.6-20.8-43.3-22.1c-15.8-1.2-31,3.2-42.3,12.1c3.5-76-39.6-114.9-84.7-119.8c-18.8-2-37.2,1.9-51.8,11
		c-14.3,8.9-23.6,21.9-27.2,37.7c-31.1-44.5-84.5-62.8-137.5-46.5c-52.9,16.2-86.9,61-87.9,115.1c-17.9-18.8-44.1-25.3-69.5-16.9
		c-11.5,3.8-21.3,10.1-28.9,18.2c-15.8-48.5-79.2-61.6-104.5-21.5c39.6-215.3-297.7-264.4-311.5-43.8c-20.1-17.7-41.8-27.9-63.4-32
		c-17.5-42.7-53-65.5-89.6-69.5c-22.4-2.4-44.2,2.2-61.5,13c-16.9,10.6-28,26-32.3,44.9c-36.9-52.9-100.4-74.6-163.4-55.3
		c-62.9,19.2-103.3,72.5-104.5,136.8c-21.3-22.3-52.4-30.1-82.6-20.1c-3.2,1.1-6.4,2.3-9.4,3.7c13.2-196.1-301-234.2-314.3-21.4
		c-76.4-67.1-175-26.5-210.7,45.3c-23.3-5.4-46.7,1.5-63.1,18.7c-1-54.1-35-98.9-87.9-115.1c-53-16.2-106.4,2-137.5,46.5
		c-3.6-15.8-12.9-28.8-27.2-37.7c-14.6-9.1-32.9-13-51.8-11c-45.1,4.9-88.3,43.8-84.7,119.8c-11.3-8.9-26.5-13.3-42.3-12.1
		c-17.7,1.3-33.4,9.4-43.3,22.1c-11.8,15.3-14.6,30.5-17.5,46.6c-1,5.3-1.9,10.8-3.3,16.4c-4.1,17.2-17.7,29.4-37.3,33.3
		c-1.3,0.3-2.7,0.5-4,0.7V346h634.1h162.2h112.5h393.8h252.5h300h131.6h236.9h559.3v-29.1C2781.6,316.7,2780.2,316.5,2778.9,316.2z"
		/>
	<path class="st1" d="M1393,260.9c-28.5,0-53.8-13.6-70.4-32.5c-24.7-28-35.6-73.4-4.3-111.7c28.3-34.6,64.8-33.1,88.4-16.2
		c24.1,17.2,37.9,51.8,17.5,84.4c-11.9,19.1-31.6,21.7-44.9,16c-12.7-5.4-18.7-17.2-15.4-30.1c0.3-1.3,1.7-2.1,3-1.8
		c1.3,0.3,2.1,1.7,1.8,3c-3.2,12.6,4.8,21,12.6,24.4c11.4,4.9,28.4,2.6,38.8-14.1c18.7-30.1,6-61.9-16.2-77.9
		c-20.2-14.4-53.7-19.1-81.8,15.3c-29.4,36.1-19.1,78.9,4.2,105.3c25.1,28.5,70.9,44.3,116.8,15.6c51.6-32.3,57.3-92,40.9-133.8
		c-0.5-1.3,0.1-2.7,1.4-3.2c1.3-0.5,2.7,0.1,3.2,1.4c17.2,43.7,11.1,106-42.8,139.7C1427.8,256.2,1409.8,260.9,1393,260.9z"/>
	<g>
		<path class="st1" d="M1482.7,346c-7.7-10.4-10.2-26.9,1-42.3c17.5-24,47.9-26.1,67.7-15.8c16.4,8.6,30.4,28.2,22.5,58.1h5
			c7.9-32-7.4-53.1-25.3-62.4c-21.6-11.2-54.8-9-73.9,17.2c-11.7,16.1-10.1,33.3-2.9,45.2H1482.7z"/>
		<path class="st1" d="M1528.5,346c0.6-1.8,0.9-3.7,0.9-5.6c0.1-5.9-2.7-10.9-7.4-13.4c-3.6-1.9-11.5-3.9-23.8,4.4
			c-1.1,0.8-1.4,2.3-0.6,3.4c0.8,1.1,2.3,1.4,3.4,0.6c7.5-5.1,14.2-6.6,18.8-4.2c3.1,1.6,4.9,5,4.8,9c0,2-0.5,3.8-1.3,5.6H1528.5z"
			/>
	</g>
	<path class="st1" d="M1328,346c6.1-11.9,20.4-29.1,50.9-24.4c17.1,2.6,27.3,10.8,29.5,23.7c0,0.2,0.1,0.5,0.1,0.7h4.9
		c-0.1-0.5-0.1-1-0.2-1.5c-1.5-8.7-7.8-23.8-33.6-27.8c-35.2-5.3-50.8,15.8-56.9,28.9c0,0.1-0.1,0.2-0.1,0.3H1328z"/>
	<path class="st1" d="M1667.1,346c3.8-1.5,7.9-2.6,12.3-3.1c8.2-0.9,16.5,0.2,24.2,3.1h11.4c-11-6.3-23.5-9.3-36.1-7.9
		c-8.3,0.9-15.8,3.6-22.3,7.9H1667.1z"/>
	<g>
		<path class="st1" d="M1211.1,335.6c-9.2-2.4-19.7,0-28.1,6.3c-1.6,1.2-3.2,2.6-4.5,4h6.8c0.2-0.1,0.3-0.3,0.5-0.4
			c7.3-5.5,16.4-7.6,24.2-5.5c1.2,0.3,2.5-0.4,2.8-1.6C1213,337.2,1212.3,336,1211.1,335.6z"/>
		<path class="st1" d="M1116.5,346c13.5-33.2,43.3-57.1,69.2-62.3c18.9-3.8,34,2.4,42.4,17.4c8.8,15.7,11.9,31.3,11.6,44.9h4.6
			c0.2-15.7-3.9-32.2-12.2-47.1c-9.3-16.6-26.5-23.8-47.3-19.6c-27.7,5.5-59.4,31.3-73.2,66.8H1116.5z"/>
	</g>
	<path class="st1" d="M737.6,325.8c-17.7,0-36.2-6.5-54.4-19.4c-19.3-13.8-30.6-37.3-30.2-63.1c0.4-24.9,11.9-47.1,30.7-59.6
		c19.1-12.7,42.8-12.7,60.3,0c15.2,11,21.7,28.4,17.1,45.5c-2.6,9.6-9.5,18-18.8,23.1c-8.8,4.8-18.3,5.9-27,3.2
		c-1.2-0.4-1.9-1.7-1.5-2.9c0.4-1.2,1.7-1.9,2.9-1.5c7.4,2.3,15.7,1.3,23.4-2.9c8.3-4.5,14.3-11.9,16.6-20.3
		c4.1-15.2-1.8-30.8-15.4-40.6c-12.7-9.2-33.8-13.9-55.1,0.1c-17.5,11.6-28.2,32.5-28.6,55.8c-0.4,24.2,10.2,46.4,28.3,59.3
		c35.7,25.4,72.7,24.6,101.3-2.4c35.4-33.3,53-105.4,21.7-155.7c-0.7-1.1-0.3-2.5,0.7-3.1c1.1-0.7,2.5-0.3,3.2,0.7
		c14.8,23.8,20.2,54.3,15.2,86c-4.7,30-18.5,57.5-37.6,75.5C774.5,318.4,756.5,325.8,737.6,325.8z"/>
	<path class="st1" d="M1031,261.5c-1.2,0-2.4,0-3.6-0.1c-48.9-1.6-90.7-35.2-101.6-81.7c-7.6-32.2,1.3-64.6,23.7-86.7
		c19.6-19.3,46.6-26.9,72.2-20.4c32.3,8.2,50.7,28.3,51.8,56.6c1.3,33.5-22.7,72.6-50.4,81.9c-14.7,5-28,0.3-37.4-13.2
		c-6.9-9.8-6.8-22.5,0.1-32.3c6.9-9.9,18.8-14.2,30.3-11.1c1.2,0.3,1.9,1.6,1.6,2.8c-0.3,1.2-1.6,1.9-2.8,1.6
		c-11.7-3.2-20.8,2.7-25.4,9.3c-4.6,6.6-7.1,17.2-0.1,27.1c8.3,11.8,19.5,15.8,32.2,11.5c23-7.8,48.6-43.3,47.3-77.4
		c-0.7-18.5-9.7-42.5-48.3-52.3c-24-6.1-49.4,1.1-67.8,19.3c-21.3,20.9-29.7,51.7-22.4,82.4c10.5,44.5,50.5,76.6,97.3,78.1
		c44,1.5,78.6-24.8,92.5-70.3c0.4-1.2,1.6-1.9,2.9-1.5c1.2,0.4,1.9,1.6,1.5,2.9C1110.2,234.2,1075.4,261.5,1031,261.5z"/>
	<path class="st1" d="M1200.7,228.9c-1.2,0-2.1-0.9-2.3-2c-0.9-8.3-5.8-16.2-13.4-21.7c-7.6-5.5-16.6-7.6-24.8-5.8
		c-1.2,0.3-2.5-0.5-2.7-1.8c-0.3-1.2,0.5-2.5,1.8-2.7c9.5-2,19.8,0.3,28.4,6.5c8.6,6.2,14.2,15.3,15.2,24.9c0.1,1.3-0.8,2.4-2,2.5
		C1200.9,228.9,1200.8,228.9,1200.7,228.9z"/>
	<path class="st1" d="M1915.1,346c6.8-16.9,18.1-29.8,30.3-35.7c12-5.8,23.3-4.1,31.9,4.8c6.9,7.2,9.7,19.1,7.4,30.9h4.6
		c2.2-12.9-1-26-8.7-34.1c-9.9-10.4-23.4-12.5-37.2-5.8c-13.4,6.5-26,21.1-33.1,39.8H1915.1z"/>
	<path class="st1" d="M1658.6,325.8c-17.7,0-36.2-6.5-54.4-19.4c-19.3-13.8-30.6-37.3-30.2-63.1c0.4-24.9,11.9-47.1,30.7-59.6
		c19.1-12.7,42.8-12.7,60.3,0c15.2,11,21.7,28.4,17.1,45.5c-2.6,9.6-9.5,18-18.8,23.1c-8.8,4.8-18.3,5.9-27,3.2
		c-1.2-0.4-1.9-1.7-1.5-2.9c0.4-1.2,1.7-1.9,2.9-1.5c7.4,2.3,15.7,1.3,23.4-2.9c8.3-4.5,14.3-11.9,16.6-20.3
		c4.1-15.2-1.8-30.8-15.4-40.6c-12.7-9.2-33.8-13.9-55.1,0.1c-17.5,11.6-28.2,32.5-28.6,55.8c-0.4,24.2,10.2,46.4,28.3,59.3
		c35.7,25.4,72.7,24.6,101.3-2.4c35.4-33.3,53-105.4,21.7-155.7c-0.7-1.1-0.3-2.5,0.7-3.1c1.1-0.7,2.5-0.3,3.1,0.7
		c14.8,23.8,20.2,54.3,15.2,86c-4.8,30-18.5,57.5-37.6,75.5C1695.5,318.4,1677.5,325.8,1658.6,325.8z"/>
	<path class="st1" d="M1952,261.5c-1.2,0-2.4,0-3.6-0.1c-48.9-1.6-90.7-35.2-101.6-81.7c-7.6-32.2,1.3-64.6,23.7-86.7
		c19.6-19.3,46.6-26.9,72.2-20.4c32.3,8.2,50.7,28.3,51.8,56.6c1.3,33.5-22.7,72.6-50.4,81.9c-14.7,5-28,0.3-37.4-13.2
		c-6.9-9.8-6.8-22.5,0.1-32.3c6.9-9.9,18.8-14.2,30.3-11.1c1.2,0.3,1.9,1.6,1.6,2.8s-1.6,1.9-2.8,1.6c-11.7-3.2-20.8,2.7-25.4,9.3
		c-4.6,6.6-7.1,17.2-0.1,27.1c8.3,11.8,19.4,15.8,32.2,11.5c23-7.8,48.6-43.3,47.3-77.4c-0.7-18.5-9.7-42.5-48.3-52.3
		c-24-6.1-49.4,1.1-67.8,19.3c-21.3,20.9-29.7,51.7-22.4,82.4c10.5,44.5,50.5,76.6,97.3,78.1c44,1.5,78.6-24.8,92.5-70.3
		c0.4-1.2,1.7-1.9,2.9-1.5c1.2,0.4,1.9,1.6,1.5,2.9C2031.2,234.2,1996.5,261.5,1952,261.5z"/>
	<path class="st1" d="M2121.8,228.9c-1.2,0-2.1-0.9-2.3-2c-0.9-8.3-5.8-16.2-13.4-21.7c-7.6-5.5-16.6-7.6-24.8-5.8
		c-1.2,0.3-2.5-0.5-2.7-1.8c-0.3-1.2,0.5-2.5,1.8-2.7c9.5-2,19.8,0.3,28.4,6.5c8.6,6.2,14.2,15.3,15.2,24.9c0.1,1.3-0.8,2.4-2,2.5
		C2121.9,228.9,2121.8,228.9,2121.8,228.9z"/>
	<g>
		<path class="st1" d="M2037.5,346c13.5-33.2,43.3-57.1,69.2-62.3c18.9-3.8,34,2.4,42.4,17.4c8.8,15.7,11.9,31.3,11.6,44.9h4.6
			c0.2-15.7-3.9-32.2-12.2-47.1c-9.3-16.6-26.5-23.8-47.3-19.6c-27.7,5.5-59.4,31.3-73.2,66.8H2037.5z"/>
		<path class="st1" d="M2132.1,335.6c-9.2-2.4-19.7,0-28.1,6.3c-1.6,1.2-3.2,2.6-4.5,4h6.8c0.2-0.1,0.3-0.3,0.5-0.4
			c7.3-5.5,16.4-7.6,24.2-5.5c1.2,0.3,2.5-0.4,2.8-1.6C2134,337.2,2133.3,336,2132.1,335.6z"/>
	</g>
	<path class="st1" d="M803.3,346c19.3-16.7,47.2-24.8,70.6-18.6c11.7,3.1,20.8,9.4,27,18.6h5.3c-6.9-11.4-17.5-19.3-31.2-23
		c-26.3-7-58,3-78.5,23H803.3z"/>
	<path class="st1" d="M994.1,346c6.8-16.9,18.1-29.8,30.3-35.7c12-5.8,23.3-4.1,31.9,4.8c6.9,7.2,9.7,19.1,7.4,30.9h4.6
		c2.2-12.9-1-26-8.7-34.1c-9.9-10.4-23.4-12.5-37.2-5.8c-13.4,6.5-26,21.1-33.1,39.8H994.1z"/>
	<path class="st1" d="M1724.3,346c19.3-16.7,47.2-24.8,70.6-18.6c11.7,3.1,20.8,9.4,27,18.6h5.3c-6.9-11.4-17.5-19.3-31.2-23
		c-26.3-7-58,3-78.5,23H1724.3z"/>
	<path class="st1" d="M2394.2,274.4c-24,0-45.2-11.5-59.2-27.3c-20.8-23.6-29.9-61.7-3.6-93.9c23.8-29.1,54.5-27.8,74.4-13.6
		c20.3,14.5,31.9,43.6,14.8,71c-10,16.1-26.6,18.2-37.8,13.5c-10.7-4.6-15.8-14.5-13-25.3c0.3-1.1,1.4-1.8,2.5-1.5
		c1.1,0.3,1.8,1.4,1.5,2.5c-2.7,10.6,4,17.7,10.6,20.5c9.6,4.1,23.9,2.1,32.7-11.9c15.8-25.3,5.1-52.1-13.7-65.5
		c-17-12.1-45.2-16.1-68.8,12.9c-24.8,30.3-16.1,66.4,3.5,88.6c21.1,23.9,59.7,37.3,98.3,13.2c43.4-27.1,48.2-77.4,34.4-112.6
		c-0.4-1.1,0.1-2.2,1.2-2.7c1.1-0.4,2.2,0.1,2.7,1.2c14.5,36.7,9.4,89.2-36,117.6C2423.4,270.4,2408.3,274.4,2394.2,274.4z"/>
	<path class="st1" d="M2580.2,262.1c-6.2,0-11.8-1.3-16.3-2.9c-30.7-11.1-52.6-48.3-47.1-69.1c5.3-19.9,32.1-40.7,57.4-36.7
		c12.9,2,24.1,10.8,28.6,22.3c4.4,11.2,1.9,23.4-6.8,34.5c-7.3,9.2-16.8,13.8-25.3,12.1c-5.7-1.1-10-4.9-11.6-10.2
		c-0.3-1.1,0.3-2.2,1.4-2.5c1.1-0.3,2.2,0.3,2.5,1.4c1.1,3.8,4.2,6.5,8.4,7.3c7,1.4,15-2.6,21.3-10.6c7.8-9.9,10-20.7,6.2-30.5
		c-4-10.2-14-17.9-25.5-19.7c-24.4-3.9-48.5,17.5-52.8,33.7c-5,18.8,16.1,54,44.5,64.2c25.8,9.3,49.2-5.4,65.8-41.4
		c0.5-1,1.7-1.5,2.7-1c1,0.5,1.5,1.7,1,2.7C2617.5,252.9,2596.6,262.1,2580.2,262.1z"/>
	<g>
		<path class="st1" d="M2469.6,346c-6.5-8.7-8.6-22.7,0.8-35.6c14.7-20.2,40.3-21.9,56.9-13.3c13.8,7.2,25.5,23.7,19,48.9h4.2
			c6.6-26.9-6.2-44.7-21.3-52.5c-18.1-9.4-46.1-7.6-62.2,14.5c-9.8,13.5-8.5,28-2.4,38H2469.6z"/>
		<path class="st1" d="M2508.2,346c0.5-1.5,0.8-3.1,0.8-4.7c0.1-4.9-2.3-9.2-6.2-11.3c-3.1-1.6-9.7-3.3-20,3.7
			c-0.9,0.6-1.2,1.9-0.5,2.9c0.6,0.9,1.9,1.2,2.9,0.5c6.3-4.3,11.9-5.6,15.8-3.5c2.6,1.4,4.1,4.2,4.1,7.6c0,1.6-0.4,3.2-1.1,4.7
			H2508.2z"/>
	</g>
	<path class="st1" d="M2663.9,308.5c-13.8,0-27.4-7-35.9-18.8c-8-11.1-18.1-35.6,3-76c0.5-1,1.8-1.4,2.8-0.9c1,0.5,1.4,1.8,0.9,2.8
		c-20.1,38.4-10.7,61.4-3.3,71.7c8.9,12.4,23.9,18.9,38.2,16.6c13.4-2.1,23.7-11.6,28.2-25.9c5.2-16.4-2.8-30.3-13-36.8
		c-7.3-4.6-18-6.8-26.3,0.9c-3.7,3.5-5.3,9.4-4,15c1.1,4.7,3.9,8.1,7.8,9.2c1.1,0.3,1.7,1.5,1.4,2.6c-0.3,1.1-1.5,1.7-2.6,1.4
		c-5.3-1.6-9.2-6.1-10.6-12.3c-1.6-7.1,0.4-14.5,5.2-18.9c8.2-7.6,20.5-8.2,31.3-1.3c11.6,7.3,20.6,23,14.7,41.5
		c-5,15.9-16.5,26.4-31.5,28.8C2668.2,308.3,2666,308.5,2663.9,308.5z"/>
	<path class="st1" d="M2339.5,346c5.1-10,17.2-24.5,42.8-20.6c14.4,2.2,23,9.1,24.8,20c0,0.2,0,0.4,0.1,0.6h4.1
		c-0.1-0.4-0.1-0.9-0.2-1.3c-1.2-7.3-6.5-20.1-28.2-23.4c-29.6-4.5-42.7,13.3-47.9,24.4c0,0.1-0.1,0.2-0.1,0.3H2339.5z"/>
	<path class="st1" d="M2624.8,346c3.2-1.3,6.7-2.2,10.3-2.6c6.9-0.8,13.9,0.2,20.3,2.6h9.6c-9.2-5.3-19.8-7.9-30.4-6.7
		c-7,0.8-13.3,3.1-18.8,6.7H2624.8z"/>
	<path class="st1" d="M2209.9,288.6c-3.4,0-6.9-0.4-10.3-1.1c-15.4-3.3-26.5-13.4-30.4-27.8c-5.2-19.1,5.2-31.7,17.1-35.5
		c10-3.1,22.3-0.1,26.6,11.8c2.4,6.7,0.8,14.2-4.1,19.5c-4.9,5.3-12.3,7.3-19.2,5.3c-1.1-0.3-1.7-1.4-1.4-2.5
		c0.3-1.1,1.4-1.7,2.5-1.4c5.5,1.6,11.1,0,15-4.2c3.9-4.2,5.1-9.9,3.2-15.3c-3.5-9.9-13.6-11.8-21.5-9.3
		c-10.4,3.3-18.8,13.9-14.4,30.5c3.5,12.8,13.4,21.9,27.3,24.8c16.3,3.5,33.9-2.4,43.8-14.5c11-13.5,11.7-33.1,1.9-55.4
		c-0.5-1,0-2.3,1.1-2.7c1-0.5,2.2,0,2.7,1.1c10.4,23.7,9.5,44.9-2.5,59.6C2238.7,282.4,2224.4,288.6,2209.9,288.6z"/>
	<path class="st1" d="M388.8,274.4c24,0,45.2-11.5,59.2-27.3c20.8-23.6,29.9-61.7,3.6-93.9c-23.8-29.1-54.5-27.8-74.4-13.6
		c-20.3,14.5-31.9,43.6-14.8,71c10,16.1,26.6,18.2,37.8,13.5c10.7-4.6,15.8-14.5,13-25.3c-0.3-1.1-1.4-1.8-2.5-1.5
		c-1.1,0.3-1.8,1.4-1.5,2.5c2.7,10.6-4,17.7-10.6,20.5c-9.6,4.1-23.9,2.1-32.7-11.9c-15.8-25.3-5.1-52.1,13.7-65.5
		c17-12.1,45.2-16.1,68.8,12.9c24.8,30.3,16.1,66.4-3.5,88.6c-21.1,23.9-59.7,37.3-98.3,13.2c-43.4-27.1-48.2-77.4-34.4-112.6
		c0.4-1.1-0.1-2.2-1.2-2.7c-1.1-0.4-2.2,0.1-2.7,1.2c-14.5,36.7-9.4,89.2,36,117.6C359.5,270.4,374.6,274.4,388.8,274.4z"/>
	<path class="st1" d="M202.8,262.1c6.2,0,11.8-1.3,16.3-2.9c30.7-11.1,52.6-48.3,47.1-69.1c-5.3-19.9-32.1-40.7-57.4-36.7
		c-12.9,2-24.1,10.8-28.6,22.3c-4.4,11.2-1.9,23.4,6.8,34.5c7.3,9.2,16.8,13.8,25.3,12.1c5.7-1.1,10-4.9,11.6-10.2
		c0.3-1.1-0.3-2.2-1.4-2.5c-1.1-0.3-2.2,0.3-2.5,1.4c-1.1,3.8-4.2,6.5-8.4,7.3c-7,1.4-15-2.6-21.3-10.6c-7.8-9.9-10-20.7-6.2-30.5
		c4-10.2,14-17.9,25.5-19.7c24.4-3.9,48.5,17.5,52.8,33.7c5,18.8-16.1,54-44.5,64.2c-25.8,9.3-49.2-5.4-65.8-41.4
		c-0.5-1-1.7-1.5-2.7-1c-1,0.5-1.5,1.7-1,2.7C165.4,252.9,186.4,262.1,202.8,262.1z"/>
	<g>
		<path class="st1" d="M313.3,346c6.5-8.7,8.6-22.7-0.8-35.6c-14.7-20.2-40.3-21.9-56.9-13.3c-13.8,7.2-25.5,23.7-19,48.9h-4.2
			c-6.6-26.9,6.2-44.7,21.3-52.5c18.1-9.4,46.1-7.6,62.2,14.5c9.8,13.5,8.5,28,2.4,38H313.3z"/>
		<path class="st1" d="M274.7,346c-0.5-1.5-0.8-3.1-0.8-4.7c-0.1-4.9,2.3-9.2,6.2-11.3c3.1-1.6,9.7-3.3,20,3.7
			c0.9,0.6,1.2,1.9,0.5,2.9c-0.6,0.9-1.9,1.2-2.9,0.5c-6.3-4.3-11.9-5.6-15.8-3.5c-2.6,1.4-4.1,4.2-4.1,7.6c0,1.6,0.4,3.2,1.1,4.7
			H274.7z"/>
	</g>
	<path class="st1" d="M119,308.5c13.8,0,27.4-7,35.9-18.8c8-11.1,18.1-35.6-3-76c-0.5-1-1.8-1.4-2.8-0.9c-1,0.5-1.4,1.8-0.9,2.8
		c20.1,38.4,10.7,61.4,3.3,71.7c-8.9,12.4-23.9,18.9-38.2,16.6c-13.4-2.1-23.7-11.6-28.2-25.9c-5.2-16.4,2.8-30.3,13-36.8
		c7.3-4.6,18-6.8,26.3,0.9c3.7,3.5,5.3,9.4,4,15c-1.1,4.7-3.9,8.1-7.8,9.2c-1.1,0.3-1.7,1.5-1.4,2.6c0.3,1.1,1.5,1.7,2.6,1.4
		c5.3-1.6,9.2-6.1,10.6-12.3c1.6-7.1-0.4-14.5-5.2-18.9c-8.2-7.6-20.5-8.2-31.3-1.3c-11.6,7.3-20.6,23-14.7,41.5
		c5,15.9,16.5,26.4,31.5,28.8C114.8,308.3,116.9,308.5,119,308.5z"/>
	<path class="st1" d="M443.5,346c-5.1-10-17.2-24.5-42.8-20.6c-14.4,2.2-23,9.1-24.8,20c0,0.2,0,0.4-0.1,0.6h-4.1
		c0.1-0.4,0.1-0.9,0.2-1.3c1.2-7.3,6.5-20.1,28.2-23.4c29.6-4.5,42.7,13.3,47.9,24.4c0,0.1,0.1,0.2,0.1,0.3H443.5z"/>
	<path class="st1" d="M158.1,346c-3.2-1.3-6.7-2.2-10.3-2.6c-6.9-0.8-13.9,0.2-20.3,2.6h-9.6c9.2-5.3,19.8-7.9,30.4-6.7
		c7,0.8,13.3,3.1,18.8,6.7H158.1z"/>
	<path class="st1" d="M573,288.6c3.4,0,6.9-0.4,10.3-1.1c15.4-3.3,26.5-13.4,30.4-27.8c5.2-19.1-5.2-31.7-17.1-35.5
		c-10-3.1-22.3-0.1-26.6,11.8c-2.4,6.7-0.8,14.2,4.1,19.5c4.9,5.3,12.3,7.3,19.2,5.3c1.1-0.3,1.7-1.4,1.4-2.5
		c-0.3-1.1-1.4-1.7-2.5-1.4c-5.5,1.6-11.1,0-15-4.2c-3.9-4.2-5.1-9.9-3.2-15.3c3.5-9.9,13.6-11.8,21.5-9.3
		c10.4,3.3,18.8,13.9,14.4,30.5c-3.5,12.8-13.4,21.9-27.3,24.8c-16.3,3.5-33.9-2.4-43.8-14.5c-11-13.5-11.7-33.1-1.9-55.4
		c0.5-1,0-2.3-1.1-2.7c-1-0.5-2.2,0-2.7,1.1c-10.4,23.7-9.5,44.9,2.5,59.6C544.2,282.4,558.5,288.6,573,288.6z"/>
</g>
</svg>
